#!OML:ASF E:\I on waltz\Acrobat_Osman\acrobat\cartwheel_test 2\Patient 1\Session 1\acrobat.ASF
:FULLY-SPECIFIED
:DEGREES
1
root 10.0287 16.0172 -4.05507 -177.081 -2.97667 176.764
lowerback -4.01805 -0.158359 -2.58357
upperback -0.322335 -0.208775 2.73363
thorax 1.94088 -0.161136 4.26165
lowerneck -10.5174 -2.16263 -6.43613
upperneck 32.1123 -4.9134 0.013876
head 12.53 -4.0724 0.20661
rclavicle 4.24902e-015 2.38542e-014
rhumerus -22.2466 -4.50056 -63.7009
rradius 26.3652
rwrist 11.3283
rhand -19.6494 26.4791
rfingers 7.12502
rthumb 6.67826 -3.39563
lclavicle 4.24902e-015 2.38542e-014
lhumerus -27.8695 -3.211 61.9342
lradius 29.541
lwrist 11.9624
lhand -19.6896 53.1316
lfingers 7.12502
lthumb 6.63946 83.0075
rfemur -9.26486 11.4682 18.2078
rtibia 16.5159
rfoot -28.3124 -15.3739
rtoes -21.0886
lfemur -14.261 9.04682 -24.5347
ltibia 31.4666
lfoot -18.856 15.698
ltoes -17.2265
2
root 10.0342 16.033 -4.11154 -177.087 -2.62169 176.828
lowerback -3.68387 -0.156679 -2.71188
upperback -0.228386 -0.200226 2.69561
thorax 1.84982 -0.155062 4.29517
lowerneck -10.8444 -2.06003 -6.23735
upperneck 32.1109 -4.76513 0.101624
head 12.5877 -3.95491 0.221402
rclavicle 8.53532e-015 -4.45278e-014
rhumerus -21.2378 -4.28099 -61.8178
rradius 26.031
rwrist 11.6381
rhand -19.6405 26.9507
rfingers 7.12502
rthumb 6.68683 -2.9237
lclavicle 8.53532e-015 -4.45278e-014
lhumerus -27.3638 -3.40878 58.6407
lradius 29.2297
lwrist 12.0451
lhand -18.3792 54.0469
lfingers 7.12502
lthumb 7.90439 83.8791
rfemur -8.67105 11.7747 18.4094
rtibia 15.6544
rfoot -27.5684 -15.5943
rtoes -20.4121
lfemur -15.154 8.68814 -24.1474
ltibia 31.1217
lfoot -18.4907 15.7594
ltoes -16.7351
3
root 10.0341 16.0563 -4.16161 -177.066 -2.19557 176.767
lowerback -3.32304 -0.107359 -2.92206
upperback -0.164229 -0.120872 2.55581
thorax 1.70617 -0.110701 4.27257
lowerneck -10.9019 -1.99301 -5.96599
upperneck 31.9825 -4.72295 0.219973
head 12.5384 -3.87372 0.230168
rclavicle 4.47266e-016 2.06736e-014
rhumerus -20.583 -4.08582 -59.5277
rradius 25.831
rwrist 11.8125
rhand -19.7835 27.0007
rfingers 7.12502
rthumb 6.54886 -2.87809
lclavicle 4.47266e-016 2.06736e-014
lhumerus -27.0709 -3.76197 54.956
lradius 29.0999
lwrist 12.2211
lhand -16.912 53.8486
lfingers 7.12502
lthumb 9.32027 83.6226
rfemur -7.97658 11.6449 18.4331
rtibia 14.4031
rfoot -26.1001 -15.6426
rtoes -19.9693
lfemur -15.9691 8.43879 -23.8979
ltibia 30.9569
lfoot -17.0584 15.7512
ltoes -17.1463
4
root 10.0316 16.0892 -4.20871 -176.986 -1.64091 176.766
lowerback -3.01996 0.0115208 -3.06582
upperback -0.0804056 0.0477114 2.39839
thorax 1.60636 -0.0225733 4.19745
lowerneck -10.8528 -1.98487 -5.69806
upperneck 31.7199 -4.76082 0.358232
head 12.4158 -3.81892 0.242187
rclavicle 2.75814e-015 2.94201e-014
rhumerus -20.159 -3.8737 -56.7558
rradius 25.5529
rwrist 11.8444
rhand -19.9844 27.0662
rfingers 7.12502
rthumb 6.35486 -2.81849
lclavicle 2.75814e-015 2.94201e-014
lhumerus -26.879 -4.43851 51.0242
lradius 29.2858
lwrist 13.2658
lhand -16.2475 53.7824
lfingers 7.12502
lthumb 9.96136 83.5267
rfemur -7.33256 11.6602 18.4845
rtibia 13.0452
rfoot -24.3645 -15.827
rtoes -20.1871
lfemur -16.5942 8.16284 -23.5427
ltibia 30.7805
lfoot -14.4739 15.2417
ltoes -17.0808
5
root 10.0259 16.1247 -4.25459 -176.879 -1.00222 176.94
lowerback -2.73794 0.16843 -3.044
upperback 0.0329863 0.257064 2.28642
thorax 1.54542 0.0843929 4.07633
lowerneck -10.7241 -2.00528 -5.44121
upperneck 31.3535 -4.81518 0.456915
head 12.2352 -3.77372 0.243226
rclavicle -6.4605e-016 -3.02153e-014
rhumerus -19.9363 -3.27993 -53.5292
rradius 25.3006
rwrist 11.3235
rhand -20.005 27.0553
rfingers 7.12502
rthumb 6.33501 -2.83
lclavicle -6.4605e-016 -3.02153e-014
lhumerus -26.7287 -5.5116 46.9416
lradius 29.6875
lwrist 14.9543
lhand -16.2619 53.4924
lfingers 7.12502
lthumb 9.94748 83.2374
rfemur -6.70416 11.8833 18.714
rtibia 11.6219
rfoot -22.4823 -15.9916
rtoes -19.6842
lfemur -17.0749 7.87048 -22.969
ltibia 30.7148
lfoot -10.7115 14.0573
ltoes -16.6042
6
root 10.0131 16.1621 -4.30047 -176.766 -0.263567 176.915
lowerback -2.47405 0.335024 -3.2138
upperback 0.190289 0.488989 2.10991
thorax 1.53779 0.200656 3.99685
lowerneck -10.4137 -2.01208 -5.17034
upperneck 30.8085 -4.82651 0.5096
head 11.944 -3.70924 0.238999
rclavicle -1.49089e-015 -6.36111e-015
rhumerus -19.9518 -2.74031 -49.8792
rradius 25.1641
rwrist 10.9699
rhand -20.1604 26.5402
rfingers 7.12502
rthumb 6.18492 -3.3495
lclavicle -1.49089e-015 -6.36111e-015
lhumerus -26.6333 -6.74186 42.6095
lradius 29.966
lwrist 16.6234
lhand -16.4389 52.8935
lfingers 7.12502
lthumb 9.77669 82.6465
rfemur -6.09863 11.7587 18.715
rtibia 10.1516
rfoot -20.0159 -15.6959
rtoes -17.4568
lfemur -17.4286 7.64458 -22.6461
ltibia 30.6612
lfoot -6.28472 12.3547
ltoes -14.9091
7
root 9.99408 16.2018 -4.34235 -176.601 0.646299 176.747
lowerback -2.3253 0.533771 -3.49008
upperback 0.472196 0.796581 1.86219
thorax 1.71646 0.358611 3.9082
lowerneck -10.103 -2.0307 -4.98455
upperneck 30.1352 -4.82898 0.654815
head 11.6111 -3.62904 0.288086
rclavicle -4.22417e-015 -2.94201e-014
rhumerus -20.128 -2.82186 -45.7902
rradius 24.9218
rwrist 11.3974
rhand -20.5901 26.3337
rfingers 7.12502
rthumb 5.77007 -3.56773
lclavicle -4.22417e-015 -2.94201e-014
lhumerus -26.6325 -8.09677 38.0899
lradius 30.1833
lwrist 18.2321
lhand -16.644 53.357
lfingers 7.12502
lthumb 9.57883 83.1193
rfemur -5.67307 11.4218 18.5572
rtibia 8.78063
rfoot -17.1501 -15.0563
rtoes -13.6552
lfemur -17.3572 7.64794 -22.5591
ltibia 30.6132
lfoot -4.58537 11.8362
ltoes -18.2633
8
root 9.97039 16.2481 -4.3728 -176.358 1.48665 176.48
lowerback -2.21079 0.723282 -3.84313
upperback 0.865786 1.0588 1.5641
thorax 2.03251 0.47073 3.81047
lowerneck -9.69534 -2.03959 -4.87487
upperneck 29.2636 -4.80822 0.938029
head 11.1924 -3.52058 0.408933
rclavicle -2.38542e-015 5.56597e-015
rhumerus -20.4908 -3.28818 -41.3815
rradius 24.7167
rwrist 11.9848
rhand -20.9229 26.3415
rfingers 7.12502
rthumb 5.44883 -3.56846
lclavicle -2.38542e-015 5.56597e-015
lhumerus -26.6853 -9.16105 33.4506
lradius 30.2866
lwrist 19.5596
lhand -17.4544 53.9833
lfingers 7.12502
lthumb 8.79689 83.78
rfemur -5.53106 11.0052 18.2806
rtibia 7.71037
rfoot -14.4686 -14.581
rtoes -10.0454
lfemur -17.4362 7.78345 -22.6805
ltibia 30.4893
lfoot -2.79497 11.1771
ltoes -19.6019
9
root 9.94735 16.2985 -4.38701 -176.072 2.0498 176.248
lowerback -1.96658 0.82833 -4.1921
upperback 1.32271 1.21326 1.27945
thorax 2.35153 0.529705 3.71919
lowerneck -8.97588 -2.02425 -4.80028
upperneck 28.0588 -4.75632 1.35858
head 10.5984 -3.37894 0.597749
rclavicle 5.86415e-015 1.59028e-014
rhumerus -21.2178 -3.59455 -36.7899
rradius 24.6936
rwrist 11.806
rhand -21.1985 25.9787
rfingers 7.12502
rthumb 5.18266 -3.93792
lclavicle 5.86415e-015 1.59028e-014
lhumerus -26.9558 -9.94862 28.7812
lradius 30.3248
lwrist 20.5574
lhand -18.7565 54.0848
lfingers 7.12502
lthumb 7.54016 83.9304
rfemur -5.60716 10.313 18.0714
rtibia 6.95167
rfoot -12.1659 -14.3594
rtoes -6.87738
lfemur -17.6315 7.81468 -22.7702
ltibia 30.3554
lfoot -1.39109 10.2473
ltoes -20.67
